<?xml version="1.0" encoding="UTF-8" standalone="no"?>
<svg
   xmlns:dc="http://purl.org/dc/elements/1.1/"
   xmlns:cc="http://creativecommons.org/ns#"
   xmlns:rdf="http://www.w3.org/1999/02/22-rdf-syntax-ns#"
   xmlns:svg="http://www.w3.org/2000/svg"
   xmlns="http://www.w3.org/2000/svg"
   xmlns:sodipodi="http://sodipodi.sourceforge.net/DTD/sodipodi-0.dtd"
   xmlns:inkscape="http://www.inkscape.org/namespaces/inkscape"
   inkscape:version="1.0 (4035a4fb49, 2020-05-01)"
   sodipodi:docname="seta-botoom-solid.svg"
   id="svg8"
   version="1.1"
   viewBox="0 0 500 500"
   height="500mm"
   width="500mm">
  <defs
     id="defs2" />
  <sodipodi:namedview
     inkscape:window-maximized="1"
     inkscape:window-y="-8"
     inkscape:window-x="-8"
     inkscape:window-height="745"
     inkscape:window-width="1366"
     showgrid="false"
     inkscape:document-rotation="0"
     inkscape:current-layer="layer1"
     inkscape:document-units="mm"
     inkscape:cy="944.88189"
     inkscape:cx="944.88189"
     inkscape:zoom="0.2936875"
     inkscape:pageshadow="2"
     inkscape:pageopacity="0.0"
     borderopacity="1.0"
     bordercolor="#666666"
     pagecolor="#ffffff"
     id="base" />
  <metadata
     id="metadata5">
    <rdf:RDF>
      <cc:Work
         rdf:about="">
        <dc:format>image/svg+xml</dc:format>
        <dc:type
           rdf:resource="http://purl.org/dc/dcmitype/StillImage" />
        <dc:title></dc:title>
      </cc:Work>
    </rdf:RDF>
  </metadata>
  <g
     id="layer1"
     inkscape:groupmode="layer"
     inkscape:label="Layer 1">
    <path
       sodipodi:nodetypes="ccccccccccccccccc"
       id="path847"
       d="m 266.16534,494.01677 c -6.86169,6.03028 -15.79308,6.76087 -22.71623,0.23178 L 53.065292,302.88723 c -6.444762,-6.0991 -6.078912,-16.83116 -0.491708,-22.78296 l 9.178746,-9.01482 c 6.583372,-6.07297 15.931576,-6.11885 22.127317,-0.32781 L 232.87026,420.8996 V 18.346293 c 0.47262,-8.6642067 6.28435,-15.8694503 15.25352,-16.2369485 l 13.59395,0.010258 c 9.65237,0.00518 15.0011,6.7786027 15.57108,17.0462325 L 276.96099,421.39129 425.62382,271.58117 c 6.39162,-6.88391 15.80576,-6.71434 21.9634,-0.81953 l 9.34266,9.01483 c 6.36603,6.43904 5.68407,16.936 -0.32783,22.61904 z"
       style="fill:#ffffff;fill-opacity:1;stroke:#000000;stroke-width:0;stroke-linecap:butt;stroke-linejoin:miter;stroke-miterlimit:4;stroke-dasharray:none;stroke-opacity:1" />
  </g>
</svg>
